<svg width="512" height="512" viewBox="0 0 512 512" xmlns="http://www.w3.org/2000/svg">
  <path d="M287.981 192h17.1c22.101 38.301 63.506 63.998 110.91 63.998 10.999 0 21.802-1.398 32.004-3.999v228c.015 17.68-14.323 32.016-32.004 32.001-17.68.013-32.016-14.323-32.001-32.001V339.2L247.974 447.998h56.007c17.682-.015 32.019 14.321 32.004 32.001.015 17.68-14.322 32.016-32.004 32.001H159.967c-53.006 0-96.009-43-96.009-96V192.498c0-16.1-12.002-29.797-28.002-31.797l-7.9-1.001C10.555 157.5-1.949 141.501.251 123.998S18.451 94 35.956 96.2l7.9 1.002c48.005 5.998 84.107 46.798 84.107 95.296v85.304C162.367 226.098 221.175 192 287.981 192m160.014 26.498a96.8 96.8 0 0 1-32.004 5.503c-28.403 0-54.004-12.401-71.607-32.001a91 91 0 0 1-9.903-13.199 95.9 95.9 0 0 1-14.5-50.8V10.7c-.002-5.872 4.73-10.648 10.603-10.7h.2c3.299.025 6.4 1.575 8.399 4.199v.102l12.803 17L379.19 57.6l4.8 6.399h64.005l4.8-6.399 27.204-36.299 12.799-17v-.102A10.66 10.66 0 0 1 501.201 0h.2c5.871.054 10.601 4.829 10.599 10.7v117.301c0 17.299-4.6 33.6-12.602 47.599a96.3 96.3 0 0 1-51.407 42.898m-48.004-90.497c0-12.321-13.336-20.016-24.003-13.856a15.99 15.99 0 0 0-8.002 13.856c0 12.317 13.336 20.013 24.003 13.856a15.99 15.99 0 0 0 8.002-13.856M447.991 144c12.319 0 20.019-13.334 13.857-24a15.99 15.99 0 0 0-13.857-8.002c-12.318 0-20.018 13.335-13.857 24A15.99 15.99 0 0 0 447.991 144" fill="currentColor"/>
</svg>