<svg width="512" height="512" viewBox="0 0 512 512" xmlns="http://www.w3.org/2000/svg">
  <path d="M88.006 0c-13.268-.031-24.031 10.732-24 24 0 38.899 23.395 59.399 39.099 73.1l1.096 1.001c16.301 14.2 23.804 21.8 23.804 37.897-.032 13.268 10.732 24.032 24 24 13.267.032 24.031-10.732 24-24 0-38.898-23.403-59.398-39.1-73.095l-1.103-1.002c-16.297-14.2-23.8-21.8-23.8-37.901.032-13.268-10.732-24.031-24-24M32.001 192C14.321 191.985-.015 206.321 0 224.001V416c0 53 43 96 96 96h191.999c53 0 96-43 96-96h15.999C461.899 416 512 365.899 512 303.998 512 242.101 461.899 192 399.998 192zm351.998 63.998h15.999c26.502 0 48 21.502 48 48 0 26.502-21.498 48-48 48h-15.999zM224.001 24c.031-13.268-10.732-24.031-24-24-13.268-.031-24.032 10.732-24 24 0 38.899 23.399 59.399 39.099 73.1l1.1 1.001c16.301 14.2 23.799 21.8 23.799 37.897-.031 13.268 10.733 24.032 24 24 13.268.032 24.032-10.732 24-24 0-38.898-23.399-59.398-39.099-73.095l-1.1-1.002c-16.301-14.2-23.799-21.8-23.799-37.901" fill="currentColor"/>
</svg>