<svg width="512" height="512" viewBox="0 0 512 512" xmlns="http://www.w3.org/2000/svg">
  <path d="M96 32.001C96.014 14.321 81.678-.015 63.998 0 46.32-.013 31.986 14.323 32.001 32.001v447.998C31.986 497.677 46.32 512.013 63.998 512c17.68.015 32.016-14.321 32.002-32.001V351.998l64.301-16.101a177.84 177.84 0 0 1 122.498 13.402A177.1 177.1 0 0 0 424.5 356.7l34.696-13.002a32.01 32.01 0 0 0 20.803-29.998V66.002c0-23.002-24.201-38.003-44.799-27.704l-9.6 4.8a164.15 164.15 0 0 1-147.099 0 164.52 164.52 0 0 0-113.499-12.499L96 48z" fill="currentColor"/>
</svg>