<svg width="512" height="512" viewBox="0 0 512 512" xmlns="http://www.w3.org/2000/svg">
  <path d="M256 512c197.069 0 320.237-213.335 221.703-383.999C431.973 48.794 347.46 0 256 0 58.931 0-64.237 213.335 34.298 383.999 80.028 463.206 164.54 512 256 512m-91.903-186.5c17.9 20.7 48.499 42.5 91.899 42.5 43.401 0 74.003-21.8 91.903-42.5 5.795-6.694 15.922-7.408 22.602-1.599 6.691 5.794 7.406 15.923 1.595 22.601-22.3 25.595-61.002 53.496-116.1 53.496s-93.8-27.897-116.099-53.499c-5.81-6.679-5.092-16.808 1.603-22.602 6.68-5.809 16.808-5.091 22.601 1.603m-19.699-117.502c-.267-24.635 26.231-40.32 47.698-28.233a32 32 0 0 1 16.301 28.233c.268 24.635-26.231 40.32-47.698 28.233a32 32 0 0 1-16.301-28.233m192-31.997c24.633-.269 40.318 26.23 28.234 47.697a32 32 0 0 1-28.234 16.301c-24.633.269-40.319-26.229-28.234-47.697a32 32 0 0 1 28.234-16.301" fill="currentColor"/>
</svg>