<svg width="512" height="512" viewBox="0 0 512 512" xmlns="http://www.w3.org/2000/svg">
  <path d="M153.603 102.399C68.804 102.399.001 171.2.001 255.999s68.801 153.602 153.6 153.602h204.798c84.803 0 153.601-68.803 153.601-153.602s-68.798-153.6-153.599-153.6zm243.2 83.201c24.634 0 40.029 26.668 27.711 48.001a32 32 0 0 1-27.711 15.998c-24.635 0-40.028-26.668-27.712-48a32 32 0 0 1 27.712-15.999m-83.201 108.8c0-24.634 26.669-40.029 48.001-27.711a32 32 0 0 1 16.001 27.711c0 24.635-26.668 40.03-48.001 27.712a32 32 0 0 1-16.001-27.712m-179.2-83.202c-.025-10.615 8.587-19.225 19.201-19.199 10.615-.026 19.227 8.586 19.201 19.201v25.6h25.6c10.614-.025 19.224 8.585 19.199 19.199.026 10.614-8.584 19.226-19.199 19.201h-25.602v25.6c.026 10.614-8.584 19.226-19.199 19.201-10.615.026-19.227-8.586-19.201-19.201v-25.6h-25.6c-10.614.025-19.225-8.587-19.198-19.201-.026-10.614 8.585-19.224 19.198-19.199h25.603z" fill="currentColor"/>
</svg>