<svg width="512" height="512" viewBox="0 0 512 512" xmlns="http://www.w3.org/2000/svg">
  <path d="M500.247 7.358a31.77 31.77 0 0 1 11.7 24.694v143.969c0 26.492-28.698 47.989-63.995 47.989s-63.992-21.497-63.992-47.989c0-26.497 28.698-47.99 63.992-47.99V71.044l-95.99 19.196v117.771c0 26.497-28.695 47.99-63.992 47.99s-63.992-21.493-63.992-47.99c0-26.496 28.695-47.989 63.992-47.989v-95.98c0-15.246 10.751-28.378 25.698-31.389L473.65.658c9.398-1.9 19.099.601 26.597 6.598zM74.691 303.991l11.799-17.798A31.86 31.86 0 0 1 113.087 272h61.694a31.86 31.86 0 0 1 26.598 14.197l11.9 17.797h26.696c26.495 0 47.995 21.494 47.995 47.99v111.975c0 26.492-21.5 47.989-47.995 47.989H47.995C21.5 511.948 0 490.451 0 463.959V351.98c0-26.492 21.5-47.989 47.995-47.989zM191.98 407.969c0-36.942-39.996-60.031-71.992-41.56a47.99 47.99 0 0 0-23.998 41.56c0 36.943 39.996 60.032 71.993 41.561a47.99 47.99 0 0 0 23.997-41.561m286.67-129.67-38.396 89.68h55.693a15.99 15.99 0 0 1 15.003 10.396 15.95 15.95 0 0 1-4.403 17.699L378.559 508.045a15.95 15.95 0 0 1-19.897.899 16.06 16.06 0 0 1-5.298-19.196l38.294-89.782h-55.689a15.99 15.99 0 0 1-15-10.395 15.945 15.945 0 0 1 4.399-17.696l127.988-111.978a15.95 15.95 0 0 1 19.897-.9 16.06 16.06 0 0 1 5.302 19.196zm-338.965-59.19c-6.501 6.5-16.999 6.5-22.996 0l-96.791-99.878C-8.098 90.24-6.598 42.349 24.897 15.354c26.998-23.493 68.395-18.996 93.39 6.499l10 10.497 9.5-10.497c24.996-25.495 65.893-29.992 93.889-6.499 30.996 26.995 32.497 74.886 4.497 103.877l-96.386 99.878z" fill="currentColor"/>
</svg>