<svg width="512" height="512" viewBox="0 0 512 512" xmlns="http://www.w3.org/2000/svg">
  <path d="M335.999 383.999c9.6-31.895 29.499-59.096 49.198-86.199 5.197-7.098 10.394-14.2 15.398-21.396a175 175 0 0 0 31.404-100.301C431.999 78.803 353.196 0 255.998 0 158.796 0 80.001 78.799 80.001 176.001c0 37.304 11.596 71.901 31.396 100.301 5.005 7.2 10.205 14.294 15.402 21.399 19.801 27.099 39.696 54.403 49.198 86.196h160.002zM255.998 512c44.198 0 80.001-35.8 80.001-79.993V416H175.997v16.007C175.997 476.2 211.8 512 255.998 512m-80.001-335.999c-.025 8.826-7.173 15.975-15.999 16.002-8.826-.027-15.975-7.175-16.002-16.002 0-61.897 50.105-112.002 112.002-112.002 8.83.024 15.981 7.176 16.006 16.006-.029 8.825-7.18 15.97-16.006 15.991-44.198 0-80.001 35.807-80.001 80.005" fill="currentColor"/>
</svg>