<svg width="512" height="512" viewBox="0 0 512 512" xmlns="http://www.w3.org/2000/svg">
  <path d="M268.779 51.202c-21.2 0-38.402 17.201-38.402 38.399v73.679L287.5 258a12.6 12.6 0 0 1 6.882-2.002h25.603c7.062.022 12.78 5.741 12.8 12.802v25.598c-.02 7.06-5.738 12.78-12.8 12.801h-2.8l59.044 97.919c9.918 16.479 10.32 37.039.958 53.838a15 15 0 0 1-1.118 1.841h97.528c21.2 0 38.403-17.201 38.403-38.399V243.199c0-21.198-17.203-38.399-38.403-38.399h-19.202v-57.599c.025-10.615-8.586-19.225-19.201-19.2-10.615-.025-19.227 8.585-19.202 19.2V204.8h-32.004V89.601c0-21.198-17.2-38.399-38.403-38.399zm25.603 51.198h25.603c7.062.022 12.78 5.741 12.8 12.802V140.8c-.02 7.06-5.738 12.78-12.8 12.802h-25.603c-7.061-.022-12.78-5.742-12.8-12.802v-25.598c.02-7.061 5.739-12.78 12.8-12.802m-12.8 89.601c.02-7.061 5.739-12.78 12.8-12.802h25.603c7.062.022 12.78 5.741 12.8 12.802v25.598c-.02 7.06-5.738 12.78-12.8 12.802h-25.603c-7.061-.022-12.78-5.742-12.8-12.802zM409.591 268.8c.02-7.061 5.738-12.78 12.8-12.802h25.603c7.061.022 12.78 5.741 12.8 12.802v25.598c-.02 7.06-5.739 12.78-12.8 12.801h-25.603c-7.062-.021-12.78-5.741-12.8-12.801zm12.8 63.997h25.603c7.061.022 12.78 5.741 12.8 12.802v25.598c-.02 7.06-5.739 12.78-12.8 12.801h-25.603c-7.062-.021-12.78-5.741-12.8-12.801v-25.598c.02-7.061 5.738-12.78 12.8-12.802M179.174 202.32l47.843 79.279h-48.644l-38.403 51.198-19.68-32.957zm23.519-35.363c-5.04-8.318-13.921-13.359-23.525-13.359-9.598 0-18.479 5.041-23.52 13.359L4.039 418.313a28.45 28.45 0 0 0-.563 28.24 27.43 27.43 0 0 0 24.082 14.241h303.304c10 0 19.202-5.442 24.082-14.241s4.639-19.598-.559-28.24z" fill="currentColor"/>
</svg>