<svg width="512" height="512" viewBox="0 0 512 512" xmlns="http://www.w3.org/2000/svg">
  <path d="M500.27 7.312c7.4 6 11.7 15.1 11.7 24.7v144c0 26.5-28.7 48-64 48s-64-21.5-64-48 28.7-48 64-48v-57l-96 19.2v117.8c0 26.5-28.7 48-64 48s-64-21.5-64-48 28.7-48 64-48v-96c0-15.3 10.8-28.4 25.7-31.4l160-32c9.4-1.9 19.1.6 26.6 6.6zM31.97.012h160c17.7 0 32 14.3 32 32s-14.3 32-32 32h-160c-17.7 0-32-14.3-32-32s14.3-32 32-32m470.6 342.6-160 160c-12.5 12.5-32.8 12.5-45.3 0s-12.5-32.8 0-45.3l160-160c12.5-12.5 32.8-12.5 45.3 0s12.5 32.8 0 45.3m-502.6-214.6c0-17.7 14.3-32 32-32h160c17.7 0 32 14.3 32 32s-14.3 32-32 32h-48v32c0 17.7-14.3 32-32 32s-32-14.3-32-32v-32h-48c-17.7 0-32-14.3-32-32m288 200c0-30.792 33.333-50.037 60-34.641a40 40 0 0 1 20 34.641c0 30.792-33.333 50.037-60 34.641a40 40 0 0 1-20-34.641m184 104c30.792 0 50.037 33.334 34.641 60a40 40 0 0 1-34.641 20c-30.792 0-50.037-33.333-34.641-60a40 40 0 0 1 34.641-20m-336.4-58 10.3 10.8 23.5-23.5c12.5-12.5 32.8-12.5 45.3 0s12.5 32.8 0 45.3l-24.7 24.7 25.2 26.7c12.2 12.8 11.6 33.1-1.2 45.2s-33.1 11.6-45.2-1.2l-24.1-25.4-12.8 12.8c-14.5 14.5-34.2 22.6-54.6 22.6-42.7 0-77.3-34.6-77.3-77.3v-.9c0-19.4 7.2-38.2 20.3-52.6l13.1-14.4c-10.9-12.5-17.4-28.9-17.4-46.8 0-39.8 32.2-72 72-72s72 32.2 72 72c0 21.5-9.4 40.8-24.4 54m-68 50.3c-2.4 2.6-3.7 6-3.7 9.5v.9c0 7.3 5.9 13.3 13.3 13.3 3.5 0 6.9-1.4 9.4-3.9l14-14-19.5-20.6-13.4 14.8zm36.4-104.3c0-12.316-13.333-20.014-24-13.856a16 16 0 0 0-8 13.856c0 12.317 13.333 20.015 24 13.857a16 16 0 0 0 8-13.857" fill="currentColor"/>
</svg>