<svg width="512" height="512" viewBox="0 0 512 512" xmlns="http://www.w3.org/2000/svg">
  <path d="M0 113.778C0 82.4 25.511 56.889 56.889 56.889h398.222C486.489 56.889 512 82.4 512 113.778v284.444c0 31.378-25.511 56.889-56.889 56.889H56.889C25.511 455.111 0 429.6 0 398.222zm263.111 56.889c-11.794-.029-21.362 9.539-21.333 21.333v128c-.029 11.794 9.539 21.362 21.333 21.333 11.794.029 21.362-9.539 21.333-21.333V192c.029-11.794-9.539-21.362-21.333-21.333M312.889 192v128c-.029 11.794 9.539 21.362 21.333 21.333 11.794.028 21.362-9.539 21.334-21.333v-35.555h35.555c11.794.028 21.361-9.54 21.333-21.334.029-11.794-9.539-21.362-21.333-21.333h-35.555v-28.445h56.888c11.794.03 21.363-9.539 21.334-21.333.029-11.794-9.54-21.363-21.334-21.333h-78.222c-11.794-.029-21.362 9.539-21.333 21.333m-199.111 64c0-23.555 19.111-42.667 42.666-42.667 7.112 0 13.689 1.689 19.556 4.712 10.489 5.422 23.378 1.333 28.711-9.156s1.333-23.378-9.155-28.711c-11.734-6.045-25.067-9.511-39.112-9.511-47.111 0-85.333 38.222-85.333 85.333s38.222 85.333 85.333 85.333c17.423 0 33.334-5.422 46.934-14.044 6.222-3.911 9.955-10.756 9.955-18.044v-46.134c.029-11.794-9.539-21.362-21.333-21.333h-28.444c-11.794-.03-21.363 9.539-21.334 21.333-.028 11.794 9.54 21.362 21.334 21.334h7.111v11.644c-4.711 1.689-9.423 2.578-14.223 2.578-23.555 0-42.666-19.111-42.666-42.667" fill="currentColor"/>
</svg>