<svg xmlns="http://www.w3.org/2000/svg" viewBox="0 0 512 512" width="512" height="512">
  <path d="M65.635 190.007c35.894 0 65.635-29.741 65.635-65.635s-29.741-65.635-65.635-65.635S0 88.478 0 124.372s29.741 65.635 65.635 65.635m0 262.541c35.894 0 65.635-29.741 65.635-65.635s-29.741-65.635-65.635-65.635S0 351.019 0 386.913s29.741 65.635 65.635 65.635m106.063-191.655q0-35.706 16.803-50.408 16.802-14.701 41.481-14.701t41.482 14.701 16.802 50.408q0 34.656-16.802 49.883-16.803 15.227-41.482 15.227t-41.481-15.227q-16.803-15.228-16.803-49.883M353.04 40.277c-9.231 15.384-5.128 35.894 9.23 46.15 26.664 17.434 84.095 77.942 84.095 169.216 0 91.273-57.431 151.781-84.095 169.215-14.358 10.256-18.461 30.767-9.23 46.15 10.255 15.383 30.766 19.485 46.149 9.23C438.161 453.573 512 374.606 512 255.643c0-118.964-73.839-197.931-112.811-224.596-15.383-9.23-35.894-5.128-46.149 9.23" fill="currentColor"/>
</svg>